<svg xmlns="http://www.w3.org/2000/svg" viewBox="0 0 558.22 549.32"><defs><style>.cls-1{fill:#293462;}.cls-2{fill:#fff1c1;}</style></defs><g id="Calque_2" data-name="Calque 2"><g id="Calque_3" data-name="Calque 3"><rect class="cls-1" width="558.22" height="549.32"/></g><g id="cart"><polygon class="cls-2" points="242.31 307.27 290.63 307.27 294.11 249.49 238.11 249.49 242.31 307.27"/><path class="cls-2" d="M282.89,41.49c-123.47,0-223.56,100.09-223.56,223.56S159.42,488.6,282.89,488.6,506.44,388.51,506.44,265.05,406.36,41.49,282.89,41.49ZM441.11,138H403.4l-11.29,46L362.49,315.49H387v-.11h11.56v44.89h-32.8a25.34,25.34,0,1,1-8.18,0H194.65a25.34,25.34,0,1,1-8.18,0H139.89a5.78,5.78,0,1,1,0-11.56H387V327.05H165.22L127,157.27H386.76l7.57-30.85h0v0h46.78a5.78,5.78,0,0,1,5.78,5.78h0A5.78,5.78,0,0,1,441.11,138Z"/><polygon class="cls-2" points="178.96 307.27 229.22 307.27 223.6 249.49 168.17 249.49 178.96 307.27"/><polygon class="cls-2" points="360.67 249.49 307 249.49 301.56 307.27 350.22 307.27 360.67 249.49"/><polygon class="cls-2" points="298.33 176.83 233.89 176.83 238.72 234.6 294.33 234.6 298.33 176.83"/><polygon class="cls-2" points="220.84 234.6 214.61 176.83 153.28 176.83 165.22 234.6 220.84 234.6"/><polygon class="cls-2" points="308.95 234.6 364.56 234.6 376.5 176.83 315.17 176.83 308.95 234.6"/></g></g></svg>