<svg xmlns="http://www.w3.org/2000/svg" viewBox="0 0 447.11 447.11"><defs><style>.cls-1{fill:#fff1c1;}</style></defs><g id="Calque_2" data-name="Calque 2"><g id="cart"><polygon class="cls-1" points="182.98 265.78 231.3 265.78 234.78 208 178.78 208 182.98 265.78"/><path class="cls-1" d="M223.56,0C100.09,0,0,100.09,0,223.56S100.09,447.11,223.56,447.11,447.11,347,447.11,223.56,347,0,223.56,0ZM381.78,96.47H344.06l-11.29,46L303.16,274h24.51v-.11h11.55v44.89h-32.8a25.33,25.33,0,1,1-8.18,0H135.31a25.33,25.33,0,1,1-8.18,0H80.56a5.78,5.78,0,0,1,0-11.56H327.67V285.56H105.89L67.67,115.78H327.42L335,84.93h0v0h46.78a5.78,5.78,0,0,1,5.78,5.78h0A5.78,5.78,0,0,1,381.78,96.47Z"/><polygon class="cls-1" points="119.63 265.78 169.89 265.78 164.27 208 108.83 208 119.63 265.78"/><polygon class="cls-1" points="301.33 208 247.67 208 242.22 265.78 290.88 265.78 301.33 208"/><polygon class="cls-1" points="239 135.33 174.56 135.33 179.39 193.11 235 193.11 239 135.33"/><polygon class="cls-1" points="161.5 193.11 155.28 135.33 93.95 135.33 105.89 193.11 161.5 193.11"/><polygon class="cls-1" points="249.61 193.11 305.23 193.11 317.17 135.33 255.84 135.33 249.61 193.11"/></g></g></svg>