<svg xmlns="http://www.w3.org/2000/svg" viewBox="0 0 192.44 192.44"><defs><style>.cls-1{fill:#fff1c1;}.cls-2{fill:none;stroke:#293461;stroke-miterlimit:10;}.cls-3,.cls-5{fill:#293461;}.cls-4{fill:#e84616;}.cls-5{font-size:10.98px;font-family:Frutiger;}</style></defs><g id="Calque_2" data-name="Calque 2"><g id="Calque_3" data-name="Calque 3"><circle class="cls-1" cx="96.22" cy="96.22" r="96.22"/><path class="cls-2" d="M147.14,83.48a53,53,0,0,0-103.62,0"/><path class="cls-3" d="M14.3,95.25a8.76,8.76,0,0,0,2.49,5.35,7,7,0,0,0,5.1,2,12.09,12.09,0,0,0,3.54-.52A16.33,16.33,0,0,0,29,100.43v4a21.33,21.33,0,0,1-3.75,1.3,15.64,15.64,0,0,1-3.55.38,12.72,12.72,0,0,1-4.79-.86,10.1,10.1,0,0,1-3.68-2.48,11.08,11.08,0,0,1-2.34-3.89,14.87,14.87,0,0,1-.82-5,13.59,13.59,0,0,1,1.32-6.13,9.75,9.75,0,0,1,3.78-4.13,10.83,10.83,0,0,1,5.6-1.46A9,9,0,0,1,26.64,84a9.78,9.78,0,0,1,3.12,4.76,21.91,21.91,0,0,1,.92,6.5Zm0-3.29H26.45a11.47,11.47,0,0,0-.86-3.29,5.46,5.46,0,0,0-1.89-2.28,5.28,5.28,0,0,0-3.06-.86,5.58,5.58,0,0,0-4.17,1.71A8.39,8.39,0,0,0,14.34,92Z"/><path class="cls-3" d="M37,84.51a15.25,15.25,0,0,1,3.7-1.59,14.44,14.44,0,0,1,3.91-.5A10.89,10.89,0,0,1,50,83.63a6.52,6.52,0,0,1,3,3.44,19.84,19.84,0,0,1,.7,6.32v4.43c0,1.71,0,3.2.06,4.48s.09,2.36.17,3.24H50.08c0-.53,0-1.12,0-1.77s0-1.52,0-2.14a8.68,8.68,0,0,1-3.14,3.22,9.19,9.19,0,0,1-4.5,1,9.83,9.83,0,0,1-4.17-.84,6.33,6.33,0,0,1-2.77-2.4,6.73,6.73,0,0,1-1-3.6,6.31,6.31,0,0,1,.78-3.17,6.78,6.78,0,0,1,2.31-2.34,11.47,11.47,0,0,1,3.72-1.44,24.12,24.12,0,0,1,5.09-.48q1.73,0,3.18.09a6,6,0,0,0-1.43-4.3A5.79,5.79,0,0,0,43.94,86a10.84,10.84,0,0,0-3.41.51,14,14,0,0,0-3.29,1.67ZM49.71,94.8c-.94-.09-1.7-.14-2.29-.14Q39,94.66,39,99a3.14,3.14,0,0,0,.55,1.84,3.71,3.71,0,0,0,1.54,1.25,5.51,5.51,0,0,0,2.27.45,6.26,6.26,0,0,0,3.75-1,5.48,5.48,0,0,0,2-2.75A12,12,0,0,0,49.71,94.8Z"/><path class="cls-3" d="M72,83.34l-.31,3.53A10.27,10.27,0,0,0,67,85.76a4.52,4.52,0,0,0-2.78.78,2.46,2.46,0,0,0-1,2.06,2.3,2.3,0,0,0,1,2,33.5,33.5,0,0,0,3.65,2,15.38,15.38,0,0,1,4,2.7A5,5,0,0,1,73.25,99a6.88,6.88,0,0,1-.58,2.83,6.11,6.11,0,0,1-1.7,2.21,7.9,7.9,0,0,1-2.67,1.41,11.05,11.05,0,0,1-3.36.49,13.86,13.86,0,0,1-5.91-1.3v-3.79A18.13,18.13,0,0,0,61.92,102a9.19,9.19,0,0,0,2.46.35,6.18,6.18,0,0,0,2.25-.39,3.7,3.7,0,0,0,1.57-1.06,2.38,2.38,0,0,0-.51-3.54A41,41,0,0,0,64,95.3a14.93,14.93,0,0,1-3.92-2.73A4.89,4.89,0,0,1,58.75,89a6.21,6.21,0,0,1,1-3.47,6.36,6.36,0,0,1,2.79-2.32,10,10,0,0,1,4.15-.81A16.66,16.66,0,0,1,72,83.34Z"/><path class="cls-3" d="M84,76.24v6.65h6v3.3H84V95.1a26.32,26.32,0,0,0,.27,4.47,3,3,0,0,0,1.12,1.94,3.71,3.71,0,0,0,2.35.71,6.19,6.19,0,0,0,2.75-.7v3.65a12.69,12.69,0,0,1-3.91.64,7.07,7.07,0,0,1-4.47-1.2,5.37,5.37,0,0,1-1.92-3.16,24.84,24.84,0,0,1-.42-5.06V86.19H74.59v-3.3h5.22V77.67Z"/><path class="cls-3" d="M119.56,83.34l-.32,3.53a10.2,10.2,0,0,0-4.61-1.11,4.52,4.52,0,0,0-2.78.78,2.46,2.46,0,0,0-1,2.06,2.3,2.3,0,0,0,1,2,33.5,33.5,0,0,0,3.65,2,15.38,15.38,0,0,1,4,2.7A5,5,0,0,1,120.83,99a6.73,6.73,0,0,1-.58,2.83,6,6,0,0,1-1.69,2.21,7.9,7.9,0,0,1-2.67,1.41,11.05,11.05,0,0,1-3.36.49,13.86,13.86,0,0,1-5.91-1.3v-3.79a18.13,18.13,0,0,0,2.89,1.15,9.19,9.19,0,0,0,2.46.35,6.18,6.18,0,0,0,2.25-.39,3.7,3.7,0,0,0,1.57-1.06,2.38,2.38,0,0,0-.51-3.54,41,41,0,0,0-3.67-2.07,14.93,14.93,0,0,1-3.92-2.73A4.89,4.89,0,0,1,106.34,89a6.21,6.21,0,0,1,1-3.47,6.36,6.36,0,0,1,2.79-2.32,10,10,0,0,1,4.15-.81A16.66,16.66,0,0,1,119.56,83.34Z"/><path class="cls-3" d="M129.76,82.8v22.74h-4.25V82.8Z"/><path class="cls-3" d="M156.36,72v22.9c0,1.18,0,3,.11,5.34s.15,4.13.21,5.27h-4.11V101.7a9,9,0,0,1-3.29,3.14,9.61,9.61,0,0,1-4.57,1,9.78,9.78,0,0,1-5.25-1.41,9.16,9.16,0,0,1-3.49-4,14.53,14.53,0,0,1-1.21-6.14,15.52,15.52,0,0,1,.69-4.79,11.22,11.22,0,0,1,2.06-3.77,8.93,8.93,0,0,1,3.18-2.46,9.45,9.45,0,0,1,4-.83,8.62,8.62,0,0,1,7.54,4q0-.34,0-1c0-.4-.05-.81-.07-1.21s0-.72,0-.94V72ZM145.74,86a5.81,5.81,0,0,0-2.61.58,6.31,6.31,0,0,0-2.06,1.71A8,8,0,0,0,139.71,91a11,11,0,0,0-.48,3.27A9,9,0,0,0,141,100a5.58,5.58,0,0,0,4.58,2.26,5.76,5.76,0,0,0,3.38-1,7.18,7.18,0,0,0,2.35-2.93,9.65,9.65,0,0,0,.86-4.12,10.09,10.09,0,0,0-.84-4.15,7.23,7.23,0,0,0-2.34-3A5.49,5.49,0,0,0,145.74,86Z"/><path class="cls-3" d="M166,95.25a8.87,8.87,0,0,0,2.49,5.35,7.06,7.06,0,0,0,5.1,2,12.09,12.09,0,0,0,3.54-.52,16.33,16.33,0,0,0,3.57-1.61v4a21.33,21.33,0,0,1-3.75,1.3,15.62,15.62,0,0,1-3.54.38,12.65,12.65,0,0,1-4.79-.86,10,10,0,0,1-3.68-2.48,10.79,10.79,0,0,1-2.34-3.89,14.63,14.63,0,0,1-.82-5,13.59,13.59,0,0,1,1.32-6.13,9.63,9.63,0,0,1,3.78-4.13,10.8,10.8,0,0,1,5.6-1.46,9,9,0,0,1,5.87,1.8,9.77,9.77,0,0,1,3.11,4.76,21.91,21.91,0,0,1,.92,6.5ZM166,92h12.11a11.47,11.47,0,0,0-.87-3.29,5.44,5.44,0,0,0-1.88-2.28,5.33,5.33,0,0,0-3.07-.86,5.61,5.61,0,0,0-4.17,1.71A8.38,8.38,0,0,0,166,92Z"/><path class="cls-4" d="M125.75,73.68c-.41-.13-.45-.67-.5-1.22-.18-1.77-.42-3.53-.53-5.31a2.32,2.32,0,0,0-1.26-2c-1.49-.88-2.93-1.85-4.4-2.77-.41-.26-.85-.52-.77-1.1s.63-.67,1.08-.78l18.31-4.28c.4-.09.83-.23,1.14.23s0,.92-.25,1.31L127,73.05A1.12,1.12,0,0,1,125.75,73.68Z"/><text class="cls-5" transform="matrix(0.72, 0.69, -0.69, 0.72, 53.17, 129.8)">m</text><text class="cls-5" transform="matrix(0.81, 0.58, -0.58, 0.81, 60.31, 136.4)">e</text><text class="cls-5" transform="matrix(0.86, 0.51, -0.51, 0.86, 65.23, 139.87)">t</text><text class="cls-5" transform="translate(68.94 142.03) rotate(25.97)">t</text><text class="cls-5" transform="translate(72.82 143.95) rotate(20.67)">e</text><text class="cls-5" transform="translate(78.52 146.07) rotate(14.68)">z</text><text class="cls-5" transform="translate(83.81 147.4) rotate(10.35)">-</text><text class="cls-5" transform="translate(86.77 147.97) rotate(6.03)">v</text><text class="cls-5" transform="translate(92.32 148.6) rotate(-0.81)">o</text><text class="cls-5" transform="matrix(0.99, -0.12, 0.12, 0.99, 98.99, 148.53)">u</text><text class="cls-5" transform="translate(105.46 147.69) rotate(-12.44)">s</text><text class="cls-5" transform="matrix(0.96, -0.28, 0.28, 0.96, 109.73, 146.72)"> </text><text class="cls-5" transform="translate(112.93 145.82) rotate(-21.2)">à</text><text class="cls-5" transform="translate(118.58 143.56) rotate(-26.03)"> </text><text class="cls-5" transform="translate(121.46 142.14) rotate(-29.04)">l</text><text class="cls-5" transform="translate(123.81 140.83) rotate(-32.04)">’</text><text class="cls-5" transform="matrix(0.8, -0.6, 0.6, 0.8, 126.61, 139.14)">E</text><text class="cls-5" transform="translate(131.47 135.44) rotate(-42.14)">s</text><text class="cls-5" transform="translate(134.72 132.49) rotate(-46.53)">t</text></g></g></svg>