<svg id="Layer_1" data-name="Layer 1" xmlns="http://www.w3.org/2000/svg" xmlns:xlink="http://www.w3.org/1999/xlink" viewBox="0 0 2407.61 1202.33"><defs><style>.cls-1,.cls-10,.cls-11,.cls-12,.cls-13,.cls-14,.cls-15,.cls-16,.cls-17,.cls-18,.cls-19,.cls-21,.cls-22,.cls-23,.cls-24,.cls-25,.cls-26,.cls-27,.cls-29,.cls-9{fill-rule:evenodd;}.cls-1{fill:url(#Dégradé_sans_nom);}.cls-2{fill:url(#Dégradé_sans_nom_2);}.cls-3{fill:url(#Dégradé_sans_nom_3);}.cls-4{fill:url(#Dégradé_sans_nom_4);}.cls-5{fill:url(#Dégradé_sans_nom_5);}.cls-6{fill:url(#Dégradé_sans_nom_6);}.cls-7{fill:url(#Dégradé_sans_nom_7);}.cls-8{fill:url(#Dégradé_sans_nom_8);}.cls-9{fill:url(#Dégradé_sans_nom_9);}.cls-10{opacity:0.8;fill:url(#Dégradé_sans_nom_10);}.cls-10,.cls-11,.cls-12,.cls-13,.cls-14,.cls-15,.cls-16,.cls-17,.cls-18,.cls-19{isolation:isolate;}.cls-11,.cls-12,.cls-13,.cls-14,.cls-15,.cls-16,.cls-17,.cls-18,.cls-19{opacity:0.5;}.cls-11{fill:url(#Dégradé_sans_nom_11);}.cls-12{fill:url(#Dégradé_sans_nom_12);}.cls-13{fill:url(#Dégradé_sans_nom_13);}.cls-14{fill:url(#Dégradé_sans_nom_14);}.cls-15{fill:url(#Dégradé_sans_nom_15);}.cls-16{fill:url(#Dégradé_sans_nom_16);}.cls-17{fill:url(#Dégradé_sans_nom_17);}.cls-18{fill:url(#Dégradé_sans_nom_18);}.cls-19{fill:url(#Dégradé_sans_nom_19);}.cls-20{fill:url(#Dégradé_sans_nom_20);}.cls-21{fill:url(#Dégradé_sans_nom_21);}.cls-22{fill:url(#Dégradé_sans_nom_22);}.cls-23{fill:url(#Dégradé_sans_nom_23);}.cls-24{fill:url(#Dégradé_sans_nom_24);}.cls-25{fill:url(#Dégradé_sans_nom_25);}.cls-26{fill:url(#Dégradé_sans_nom_26);}.cls-27{fill:url(#Dégradé_sans_nom_27);}.cls-28{fill:url(#Dégradé_sans_nom_28);}.cls-29{fill:url(#Dégradé_sans_nom_29);}.cls-30{fill:url(#Dégradé_sans_nom_30);}</style><linearGradient id="Dégradé_sans_nom" x1="500" y1="-2.11" x2="500" y2="1200.22" gradientTransform="matrix(1, 0, 0, -1, 0, 997.89)" gradientUnits="userSpaceOnUse"><stop offset="0" stop-color="#e78c73"/><stop offset="1" stop-color="#60748f"/></linearGradient><linearGradient id="Dégradé_sans_nom_2" x1="1064.91" y1="266.48" x2="1471.91" y2="266.48" gradientTransform="matrix(1, 0, 0, -1, 0, 997.89)" gradientUnits="userSpaceOnUse"><stop offset="0" stop-color="#e78c73"/><stop offset="1" stop-color="#c3806e" stop-opacity="0"/></linearGradient><linearGradient id="Dégradé_sans_nom_3" x1="487.64" y1="354.37" x2="487.64" y2="76.37" gradientTransform="matrix(1, 0, 0, -1, 0, 997.89)" gradientUnits="userSpaceOnUse"><stop offset="0" stop-color="#b17a6c"/><stop offset="1" stop-color="#5e5e5e"/></linearGradient><linearGradient id="Dégradé_sans_nom_4" x1="-265.41" y1="188.19" x2="-265.41" y2="66.66" gradientTransform="matrix(1, 0, 0, -1, 0, 997.89)" gradientUnits="userSpaceOnUse"><stop offset="0" stop-color="#e78c73"/><stop offset="1" stop-color="#5e5e5e"/></linearGradient><linearGradient id="Dégradé_sans_nom_5" x1="-282.6" y1="316.97" x2="124.39" y2="316.97" xlink:href="#Dégradé_sans_nom_2"/><linearGradient id="Dégradé_sans_nom_6" x1="565.64" y1="305.21" x2="972.63" y2="305.21" xlink:href="#Dégradé_sans_nom_2"/><linearGradient id="Dégradé_sans_nom_7" x1="-361.35" y1="220.15" x2="-248.02" y2="220.15" xlink:href="#Dégradé_sans_nom_2"/><linearGradient id="Dégradé_sans_nom_8" x1="-185.8" y1="175.82" x2="-72.48" y2="175.82" xlink:href="#Dégradé_sans_nom_2"/><linearGradient id="Dégradé_sans_nom_9" x1="-703.81" y1="37.87" x2="1703.81" y2="37.87" gradientTransform="matrix(1, 0, 0, -1, 0, 997.89)" gradientUnits="userSpaceOnUse"><stop offset="0" stop-color="#c3806e"/><stop offset="0.51" stop-color="#5d6d7d"/><stop offset="1" stop-color="#c3806e"/></linearGradient><radialGradient id="Dégradé_sans_nom_10" cx="870.68" cy="502.24" r="56.22" gradientTransform="matrix(1, 0, 0, -1, 0, 997.89)" gradientUnits="userSpaceOnUse"><stop offset="0.74" stop-color="#e6f4f4"/><stop offset="1" stop-color="#faf8d6" stop-opacity="0.13"/></radialGradient><radialGradient id="Dégradé_sans_nom_11" cx="101.08" cy="762.14" r="13.74" gradientTransform="matrix(1, 0, 0, -1, 0, 997.89)" gradientUnits="userSpaceOnUse"><stop offset="0" stop-color="#e5f5fc"/><stop offset="1" stop-color="#f7fbff" stop-opacity="0.13"/></radialGradient><radialGradient id="Dégradé_sans_nom_12" cx="1386.1" cy="459.78" r="13.73" xlink:href="#Dégradé_sans_nom_11"/><radialGradient id="Dégradé_sans_nom_13" cx="218.34" cy="540.99" r="13.74" xlink:href="#Dégradé_sans_nom_11"/><radialGradient id="Dégradé_sans_nom_14" cx="166.24" cy="910.49" r="13.74" xlink:href="#Dégradé_sans_nom_11"/><radialGradient id="Dégradé_sans_nom_15" cx="388.74" cy="354.39" r="13.73" xlink:href="#Dégradé_sans_nom_11"/><radialGradient id="Dégradé_sans_nom_16" cx="854.32" cy="937.97" r="13.73" xlink:href="#Dégradé_sans_nom_11"/><radialGradient id="Dégradé_sans_nom_17" cx="913.95" cy="978.22" r="13.74" xlink:href="#Dégradé_sans_nom_11"/><radialGradient id="Dégradé_sans_nom_18" cx="448.43" cy="789.62" r="13.73" xlink:href="#Dégradé_sans_nom_11"/><radialGradient id="Dégradé_sans_nom_19" cx="-403.09" cy="473.52" r="13.74" xlink:href="#Dégradé_sans_nom_11"/><linearGradient id="Dégradé_sans_nom_20" x1="1220.92" y1="162.71" x2="1488.05" y2="162.71" xlink:href="#Dégradé_sans_nom_2"/><linearGradient id="Dégradé_sans_nom_21" x1="320.01" y1="69.16" x2="415.65" y2="69.16" xlink:href="#Dégradé_sans_nom_2"/><linearGradient id="Dégradé_sans_nom_22" x1="14.36" y1="66.66" x2="175.08" y2="66.66" xlink:href="#Dégradé_sans_nom_2"/><linearGradient id="Dégradé_sans_nom_23" x1="245.53" y1="58.45" x2="406.25" y2="58.45" xlink:href="#Dégradé_sans_nom_2"/><linearGradient id="Dégradé_sans_nom_24" x1="1285.98" y1="29.24" x2="1446.7" y2="29.24" xlink:href="#Dégradé_sans_nom_2"/><linearGradient id="Dégradé_sans_nom_25" x1="1023.05" y1="44.69" x2="1318.45" y2="44.69" xlink:href="#Dégradé_sans_nom_2"/><linearGradient id="Dégradé_sans_nom_26" x1="-382.7" y1="27.35" x2="-87.3" y2="27.35" xlink:href="#Dégradé_sans_nom_2"/><linearGradient id="Dégradé_sans_nom_27" x1="1389.07" y1="12.47" x2="1684.45" y2="12.47" xlink:href="#Dégradé_sans_nom_2"/><linearGradient id="Dégradé_sans_nom_28" x1="282.75" y1="162.97" x2="282.75" y2="67.06" xlink:href="#Dégradé_sans_nom_4"/><linearGradient id="Dégradé_sans_nom_29" x1="201.32" y1="69.16" x2="296.96" y2="69.16" xlink:href="#Dégradé_sans_nom_2"/><linearGradient id="Dégradé_sans_nom_30" x1="1258.22" y1="175.74" x2="1258.22" y2="54.21" xlink:href="#Dégradé_sans_nom_4"/></defs><path class="cls-1" d="M1703.81,1000C1699.72,335.28,1162.38-202.33,500-202.33S-699.72,335.26-703.81,1000Z" transform="translate(703.81 202.33)"/><path class="cls-2" d="M1471.91,756.84c-43.45-25.44-68.32-34.32-112.8-17.8-14.75,5.47-26.24-15.77-44-15.77s-28.38,19.75-44,15.77c-28.86-7.39-26.08-33-56.76-33-28.18,0-28.61,18-56,18-49.93,0-64.2,3.54-93.48,32.84Z" transform="translate(703.81 202.33)"/><path class="cls-3" d="M1523,921.52c-170.26,0-240.75-226.57-386.76-179.52-107.36,34.59-115.29-98.48-231.8-98.48-127.05,0-115.47,140.33-234.88,180.66C605.1,845.94,561,738,487.64,738s-117.47,108-181.93,86.22C186.3,783.85,197.88,643.52,70.85,643.52-45.7,643.52-47.51,742-160.95,742c-206.63,0-63.73,118.71-386.78,179.52Z" transform="translate(703.81 202.33)"/><path class="cls-4" d="M170.45,931.23c-22.22-2.49-105.24-99-169.08-78.48-46.93,15.12-50.39-43-101.32-43-55.54,0-50.48,61.34-102.67,79-28.18,9.52-47.47-37.7-79.52-37.7s-51.35,47.2-79.52,37.7c-52.2-17.64-83-79-138-79-47.84,0-70.45,40.72-121.59,40.72-21.37,0-47.9-3-73.21,7.51q-4.46,36.32-6.78,73.3Z" transform="translate(703.81 202.33)"/><path class="cls-5" d="M124.39,706.34C81,680.93,56.1,672,11.6,688.54c-14.75,5.48-26.25-15.77-44-15.77s-28.38,19.75-44,15.77c-28.86-7.38-26.06-33-56.76-33-28.18,0-28.61,18-56,18-49.93,0-64.19,3.55-93.48,32.84Z" transform="translate(703.81 202.33)"/><path class="cls-6" d="M972.63,718.1c-43.42-25.43-68.31-34.31-112.77-17.8-14.75,5.48-26.24-15.76-44-15.76s-28.38,19.75-44,15.76c-28.86-7.38-26.08-33-56.76-33-28.18,0-28.61,18-56,18-49.93,0-64.19,3.55-93.48,32.84Z" transform="translate(703.81 202.33)"/><path class="cls-7" d="M-248,784.8c-12.09-7.09-19-9.56-31.41-5-4.1,1.54-7.3-4.37-12.24-4.37s-7.9,5.49-12.24,4.37c-8-2.05-7.26-9.19-15.8-9.19-7.85,0-8,5-15.61,5-13.9,0-17.88,1-26,9.15H-248Z" transform="translate(703.81 202.33)"/><path class="cls-8" d="M-72.48,829.16c-12.1-7.08-19-9.55-31.41-5-4.11,1.53-7.31-4.4-12.24-4.4s-7.91,5.5-12.24,4.4c-8-2.06-7.27-9.21-15.81-9.21-7.84,0-8,5-15.6,5-13.9,0-17.87,1-26,9.15Z" transform="translate(703.81 202.33)"/><path class="cls-9" d="M-700.63,920.05c-1.89,26.43-3,53.08-3.18,80H1703.81c-.17-26.89-1.29-53.52-3.18-80Z" transform="translate(703.81 202.33)"/><path class="cls-10" d="M926.89,495.64a56.21,56.21,0,1,1-56.22-56.22A56.22,56.22,0,0,1,926.89,495.64Z" transform="translate(703.81 202.33)"/><path class="cls-11" d="M114.81,235.74A13.74,13.74,0,1,1,101.08,222,13.75,13.75,0,0,1,114.81,235.74Z" transform="translate(703.81 202.33)"/><path class="cls-12" d="M1399.84,538.11a13.74,13.74,0,1,1-13.74-13.73A13.75,13.75,0,0,1,1399.84,538.11Z" transform="translate(703.81 202.33)"/><path class="cls-13" d="M232.09,456.91a13.75,13.75,0,1,1-13.76-13.75A13.74,13.74,0,0,1,232.09,456.91Z" transform="translate(703.81 202.33)"/><path class="cls-14" d="M180,87.39a13.73,13.73,0,1,1-13.73-13.74A13.75,13.75,0,0,1,180,87.39Z" transform="translate(703.81 202.33)"/><path class="cls-15" d="M402.47,643.5a13.73,13.73,0,1,1-13.73-13.73A13.74,13.74,0,0,1,402.47,643.5Z" transform="translate(703.81 202.33)"/><path class="cls-16" d="M868.05,59.92a13.73,13.73,0,1,1-13.73-13.74A13.72,13.72,0,0,1,868.05,59.92Z" transform="translate(703.81 202.33)"/><path class="cls-17" d="M927.7,19.67A13.75,13.75,0,1,1,914,5.94,13.74,13.74,0,0,1,927.7,19.67Z" transform="translate(703.81 202.33)"/><path class="cls-18" d="M462.16,208.27a13.74,13.74,0,1,1-13.73-13.73A13.74,13.74,0,0,1,462.16,208.27Z" transform="translate(703.81 202.33)"/><path class="cls-19" d="M-389.36,524.38a13.73,13.73,0,0,1-13.73,13.73,13.76,13.76,0,0,1-13.74-13.73,13.77,13.77,0,0,1,13.74-13.76A13.75,13.75,0,0,1-389.36,524.38Z" transform="translate(703.81 202.33)"/><path class="cls-20" d="M1488.05,851.85c-28.51-16.68-44.83-22.51-74-11.68-9.69,3.59-17.22-10.35-28.86-10.35s-18.63,13-28.86,10.35c-18.94-4.83-17.11-21.68-37.26-21.68-18.48,0-18.77,11.83-36.76,11.83-32.78,0-42.14,2.32-61.37,21.55h267.13Z" transform="translate(703.81 202.33)"/><path class="cls-21" d="M407.18,926.6c-2.16,0-3.61,2.14-5.62,2.14s-3.46-2.14-5.62-2.14-3.63,2.14-5.62,2.14-3.47-2.14-5.63-2.14-3.61,2.14-5.6,2.14-3.46-2.14-5.62-2.14-3.63,2.14-5.62,2.14-3.45-2.14-5.62-2.14-3.63,2.14-5.63,2.14-3.46-2.14-5.62-2.14-3.61,2.14-5.62,2.14-3.44-2.14-5.62-2.14-3.63,2.14-5.62,2.14-3.47-2.14-5.63-2.14c-4.69,0-8.48,4.25-8.48,4.25h95.64S411.89,926.6,407.18,926.6Z" transform="translate(703.81 202.33)"/><path class="cls-22" d="M160.8,927.66c-3.63,0-6.08,3.59-9.44,3.59s-5.8-3.59-9.44-3.59-6.07,3.59-9.43,3.59-5.81-3.59-9.44-3.59-6.08,3.59-9.44,3.59-5.81-3.59-9.44-3.59-6.08,3.59-9.44,3.59-5.81-3.59-9.44-3.59-6.08,3.59-9.44,3.59-5.83-3.59-9.44-3.59-6.08,3.59-9.44,3.59-5.81-3.59-9.44-3.59-6.08,3.59-9.46,3.59-5.81-3.59-9.44-3.59c-7.88,0-14.27,7.14-14.27,7.14H175.08S168.69,927.66,160.8,927.66Z" transform="translate(703.81 202.33)"/><path class="cls-23" d="M392,935.87c-3.64,0-6.08,3.59-9.44,3.59s-5.81-3.59-9.44-3.59-6.08,3.59-9.44,3.59-5.81-3.59-9.44-3.59-6.08,3.59-9.44,3.59-5.81-3.59-9.44-3.59-6.08,3.59-9.44,3.59-5.81-3.59-9.44-3.59-6.08,3.59-9.44,3.59-5.81-3.59-9.44-3.59-6.06,3.59-9.44,3.59-5.83-3.59-9.44-3.59-6.08,3.59-9.44,3.59-5.83-3.59-9.44-3.59c-7.86,0-14.27,7.14-14.27,7.14H406.25S399.84,935.87,392,935.87Z" transform="translate(703.81 202.33)"/><path class="cls-24" d="M1432.45,965.08c-3.63,0-6.08,3.59-9.44,3.59s-5.81-3.59-9.44-3.59-6.08,3.59-9.46,3.59-5.81-3.59-9.44-3.59-6.08,3.59-9.46,3.59-5.81-3.59-9.44-3.59-6.08,3.59-9.44,3.59-5.83-3.59-9.44-3.59-6.08,3.59-9.44,3.59-5.81-3.59-9.44-3.59-6,3.59-9.44,3.59-5.83-3.59-9.44-3.59-6.07,3.59-9.44,3.59-5.8-3.59-9.43-3.59c-7.89,0-14.28,7.14-14.28,7.14H1446.7S1440.33,965.08,1432.45,965.08Z" transform="translate(703.81 202.33)"/><path class="cls-25" d="M1304.2,949.63c-3.63,0-6.08,3.59-9.44,3.59s-5.81-3.59-9.44-3.59-6.08,3.59-9.46,3.59-5.81-3.59-9.44-3.59-6.08,3.59-9.46,3.59-5.81-3.59-9.44-3.59-6.08,3.59-9.44,3.59-5.81-3.59-9.44-3.59-6.08,3.59-9.44,3.59-5.81-3.59-9.44-3.59-6.08,3.59-9.44,3.59-5.81-3.59-9.44-3.59-6.08,3.59-9.44,3.59-5.83-3.59-9.44-3.59c-.43,0-.85.1-1.26.14s-.83-.14-1.27-.14c-3.61,0-6.08,3.59-9.44,3.59s-5.81-3.59-9.44-3.59-6.07,3.59-9.44,3.59-5.83-3.59-9.43-3.59-6.08,3.59-9.44,3.59-5.81-3.59-9.44-3.59-6.08,3.59-9.44,3.59-5.81-3.59-9.46-3.59-6.08,3.59-9.44,3.59-5.81-3.59-9.44-3.59-6.08,3.59-9.44,3.59-5.81-3.59-9.44-3.59-6.08,3.59-9.44,3.59-5.83-3.59-9.44-3.59c-7.88,0-14.25,7.14-14.25,7.14h295.4S1312.08,949.63,1304.2,949.63Z" transform="translate(703.81 202.33)"/><path class="cls-26" d="M-101.59,967c-3.63,0-6.08,3.59-9.44,3.59s-5.81-3.59-9.44-3.59-6.08,3.59-9.44,3.59-5.81-3.59-9.44-3.59-6.08,3.59-9.44,3.59-5.81-3.59-9.44-3.59-6.08,3.59-9.44,3.59-5.81-3.59-9.44-3.59-6.08,3.59-9.44,3.59S-192.36,967-196,967s-6.07,3.59-9.44,3.59-5.82-3.59-9.43-3.59-6.08,3.59-9.44,3.59-5.83-3.59-9.44-3.59c-.44,0-.85.11-1.27.13s-.83-.13-1.26-.13c-3.63,0-6.08,3.59-9.44,3.59s-5.81-3.59-9.44-3.59-6.08,3.59-9.44,3.59S-270.4,967-274,967s-6.08,3.59-9.44,3.59-5.81-3.59-9.44-3.59-6.08,3.59-9.44,3.59-5.83-3.59-9.44-3.59-6.08,3.59-9.44,3.59S-327,967-330.67,967s-6.06,3.59-9.44,3.59-5.83-3.59-9.44-3.59-6.08,3.59-9.44,3.59-5.81-3.59-9.44-3.59c-7.88,0-14.27,7.14-14.27,7.14H-87.3S-93.71,967-101.59,967Z" transform="translate(703.81 202.33)"/><path class="cls-27" d="M1670.2,981.85c-3.63,0-6.08,3.59-9.44,3.59s-5.81-3.59-9.44-3.59-6.08,3.59-9.44,3.59-5.83-3.59-9.44-3.59-6.08,3.59-9.46,3.59-5.81-3.59-9.44-3.59-6.08,3.59-9.44,3.59-5.81-3.59-9.44-3.59-6.08,3.59-9.44,3.59-5.81-3.59-9.44-3.59-6.06,3.59-9.44,3.59-5.83-3.59-9.44-3.59-6.08,3.59-9.44,3.59-5.81-3.59-9.44-3.59a8.67,8.67,0,0,0-1.26.14c-.44,0-.83-.14-1.27-.14-3.63,0-6.08,3.59-9.44,3.59s-5.81-3.59-9.44-3.59-6.07,3.59-9.44,3.59-5.82-3.59-9.43-3.59-6.08,3.59-9.44,3.59-5.81-3.59-9.44-3.59-6.08,3.59-9.44,3.59-5.83-3.59-9.44-3.59-6.08,3.59-9.44,3.59-5.81-3.59-9.44-3.59-6.08,3.59-9.44,3.59-5.81-3.59-9.44-3.59-6.08,3.59-9.44,3.59-5.81-3.59-9.44-3.59c-7.88,0-14.27,7.13-14.27,7.13h295.38S1678.08,981.85,1670.2,981.85Z" transform="translate(703.81 202.33)"/><path class="cls-28" d="M364.24,895a230.66,230.66,0,0,0-38,8v-6.08c6.7-1.74,15.87-4.1,23.82-6-4.65-14.11-.44-28.46,1.1-32.88.49-.21.87-.33.89-.36a1.11,1.11,0,1,0-.73-2.09c-.18.06-14,5-25.08,20.79v-7.91a1.11,1.11,0,0,0-1.1-1.12,1.1,1.1,0,0,0-1.1,1.12v11.31a72.23,72.23,0,0,0-8.19,19.33,1.13,1.13,0,0,0,.79,1.37.7.7,0,0,0,.29,0,1.12,1.12,0,0,0,1.07-.83l.19-.62,5.85-1.55v6.16c-2.38.77-4.79,1.57-7.2,2.45-9.42.7-19.56,1.22-29.54,1.45v-6.29c8.55-3.44,18.44-7.16,24.05-8.28-7.22-15.1-1.54-48.71-.25-55.66.37-.18.66-.31.68-.33a1.13,1.13,0,0,0,.6-1.45,1.1,1.1,0,0,0-1.45-.6c-.23.1-12.59,5.52-23.63,19.69v-7a1.12,1.12,0,0,0-2.24,0v10.07c-7.92,11.32-14.6,27.44-14.67,49.91a228.39,228.39,0,0,1-29-1.78v-7.35a118.13,118.13,0,0,1,25.44-.87c-4.86-14.73-4.51-37.36-4.34-43,.33-.21.56-.36.58-.36a1.11,1.11,0,0,0,.44-1.51,1.13,1.13,0,0,0-1.52-.44,81.8,81.8,0,0,0-20.62,18.47v-2.41a1.12,1.12,0,0,0-1.12-1.12,1.1,1.1,0,0,0-1.1,1.12v5.31a82.73,82.73,0,0,0-13.75,28.38,1.1,1.1,0,0,0,.78,1.37,1.55,1.55,0,0,0,.29,0,1.12,1.12,0,0,0,1.08-.83c.07-.29.17-.54.25-.83a64.13,64.13,0,0,1,11.35-3v6.66a46.52,46.52,0,0,1-7.8-1.89,22.33,22.33,0,0,0,1.39,6c-28.78,0-31.47,3.28-31.47,3.28l9.4.44c18.67,0,25.7,17.44,39.08,17.44h81.72s24.23-11.26,25.91-28.83l2.32-.46ZM272.6,907.74c0-.08,0-.16,0-.25,2.08-.91,6.81-3,12.43-5.24v5.41C280.84,907.72,276.67,907.76,272.6,907.74Z" transform="translate(703.81 202.33)"/><path class="cls-29" d="M288.52,926.6c-2.16,0-3.61,2.14-5.63,2.14s-3.46-2.14-5.62-2.14-3.61,2.14-5.62,2.14-3.44-2.14-5.62-2.14-3.61,2.14-5.63,2.14-3.46-2.14-5.62-2.14-3.61,2.14-5.62,2.14-3.46-2.14-5.62-2.14-3.61,2.14-5.62,2.14-3.47-2.14-5.63-2.14-3.63,2.14-5.62,2.14-3.46-2.14-5.62-2.14-3.63,2.14-5.62,2.14-3.47-2.14-5.62-2.14c-4.69,0-8.49,4.25-8.49,4.25H297S293.2,926.6,288.52,926.6Z" transform="translate(703.81 202.33)"/><path class="cls-30" d="M1695.59,867.08a114.12,114.12,0,0,1-13.42-13.32c-33.32-38.73-76.85,11.43-131.59,11.43-49.32,0-50.4-43-101.33-43-55.53,0-50.47,61.34-102.67,79-28.17,9.53-47.47-37.69-79.52-37.69s-51.34,47.2-79.54,37.69c-52.2-17.63-47.13-79-102.67-79-50.95,0-51.74,43-101.32,43-65.06,0-155.85,71.83-169.08,78.48H1702Q1700,905,1695.59,867.08Z" transform="translate(703.81 202.33)"/></svg>