<svg xmlns="http://www.w3.org/2000/svg" viewBox="0 0 172.3 109.85"><defs><style>.cls-1{fill:none;stroke:#293461;stroke-miterlimit:10;}.cls-2,.cls-4{fill:#293461;}.cls-3{fill:#e84616;}.cls-4{font-size:10.98px;font-family:Frutiger;}</style></defs><g id="Calque_2" data-name="Calque 2"><g id="Calque_3" data-name="Calque 3"><path class="cls-1" d="M137.06,42.44a53,53,0,0,0-103.62,0"/><path class="cls-2" d="M4.23,54.2a8.8,8.8,0,0,0,2.48,5.35,7.06,7.06,0,0,0,5.1,2A12.21,12.21,0,0,0,15.36,61a15.62,15.62,0,0,0,3.56-1.61v4a21.33,21.33,0,0,1-3.75,1.3,15.61,15.61,0,0,1-3.54.39,12.69,12.69,0,0,1-4.79-.87,10.12,10.12,0,0,1-3.68-2.47,10.92,10.92,0,0,1-2.34-3.9,14.63,14.63,0,0,1-.82-5,13.59,13.59,0,0,1,1.32-6.13A9.67,9.67,0,0,1,5.1,42.61a10.71,10.71,0,0,1,5.6-1.47A8.92,8.92,0,0,1,16.57,43a9.72,9.72,0,0,1,3.11,4.76,21.48,21.48,0,0,1,.92,6.49Zm0-3.29H16.38a11.08,11.08,0,0,0-.87-3.28,5.41,5.41,0,0,0-1.88-2.29,5.31,5.31,0,0,0-3.07-.86,5.61,5.61,0,0,0-4.17,1.71A8.38,8.38,0,0,0,4.27,50.91Z"/><path class="cls-2" d="M26.94,43.46a15,15,0,0,1,3.69-1.59,14.57,14.57,0,0,1,3.92-.5,10.83,10.83,0,0,1,5.37,1.21,6.48,6.48,0,0,1,3,3.44,19.81,19.81,0,0,1,.71,6.32v4.43c0,1.71,0,3.21,0,4.49s.1,2.35.17,3.23H40c0-.53,0-1.12,0-1.77s0-1.51,0-2.13a8.63,8.63,0,0,1-3.13,3.21,9.19,9.19,0,0,1-4.5,1A9.79,9.79,0,0,1,28.2,64a6.27,6.27,0,0,1-2.77-2.4,6.69,6.69,0,0,1-1-3.6,6.34,6.34,0,0,1,.79-3.17,6.84,6.84,0,0,1,2.3-2.34A11.62,11.62,0,0,1,31.28,51a24.06,24.06,0,0,1,5.09-.48c1.15,0,2.21,0,3.18.1a6,6,0,0,0-1.43-4.31A5.81,5.81,0,0,0,33.87,45a10.84,10.84,0,0,0-3.41.51,14,14,0,0,0-3.29,1.67Zm12.7,10.29c-.94-.09-1.7-.14-2.3-.14q-8.4,0-8.4,4.32a3.21,3.21,0,0,0,.54,1.84A3.74,3.74,0,0,0,31,61a5.48,5.48,0,0,0,2.27.45,6.26,6.26,0,0,0,3.75-1,5.54,5.54,0,0,0,2-2.75A12.29,12.29,0,0,0,39.64,53.75Z"/><path class="cls-2" d="M61.9,42.29l-.32,3.53A10.2,10.2,0,0,0,57,44.71a4.5,4.5,0,0,0-2.78.78,2.46,2.46,0,0,0-1,2.06,2.31,2.31,0,0,0,1,2,34.48,34.48,0,0,0,3.64,2,15,15,0,0,1,4,2.69A5,5,0,0,1,63.17,58a6.76,6.76,0,0,1-.58,2.83A6.13,6.13,0,0,1,60.9,63a7.7,7.7,0,0,1-2.68,1.41,11,11,0,0,1-3.35.49A13.76,13.76,0,0,1,49,63.6V59.81A17.92,17.92,0,0,0,51.84,61a9.3,9.3,0,0,0,2.46.35,6.41,6.41,0,0,0,2.26-.38,3.87,3.87,0,0,0,1.57-1.07,2.38,2.38,0,0,0-.51-3.54c-.73-.48-1.95-1.17-3.67-2.06A15.43,15.43,0,0,1,50,51.52,4.92,4.92,0,0,1,48.68,48a6.21,6.21,0,0,1,1-3.47,6.36,6.36,0,0,1,2.79-2.32,10,10,0,0,1,4.15-.81A17,17,0,0,1,61.9,42.29Z"/><path class="cls-2" d="M74,35.19v6.65h6v3.3H74v8.91a26.32,26.32,0,0,0,.27,4.47,3,3,0,0,0,1.13,1.94,3.7,3.7,0,0,0,2.35.72,6.25,6.25,0,0,0,2.75-.71v3.65a12.75,12.75,0,0,1-3.92.64,7,7,0,0,1-4.46-1.2,5.34,5.34,0,0,1-1.92-3.16,24.84,24.84,0,0,1-.42-5.06V45.14H64.51v-3.3h5.23V36.62Z"/><path class="cls-2" d="M109.49,42.29l-.32,3.53a10.2,10.2,0,0,0-4.61-1.11,4.5,4.5,0,0,0-2.78.78,2.46,2.46,0,0,0-1,2.06,2.29,2.29,0,0,0,1,2,34.48,34.48,0,0,0,3.64,2,15,15,0,0,1,4,2.69A5,5,0,0,1,110.76,58a6.76,6.76,0,0,1-.58,2.83,6.13,6.13,0,0,1-1.69,2.2,7.7,7.7,0,0,1-2.68,1.41,11,11,0,0,1-3.35.49,13.76,13.76,0,0,1-5.92-1.3V59.81A17.92,17.92,0,0,0,99.43,61a9.3,9.3,0,0,0,2.46.35,6.41,6.41,0,0,0,2.26-.38,3.87,3.87,0,0,0,1.57-1.07,2.37,2.37,0,0,0-.52-3.54c-.72-.48-1.94-1.17-3.66-2.06a15.43,15.43,0,0,1-3.93-2.74A4.92,4.92,0,0,1,96.27,48a6.13,6.13,0,0,1,1-3.47A6.36,6.36,0,0,1,100,42.18a10,10,0,0,1,4.15-.81A17,17,0,0,1,109.49,42.29Z"/><path class="cls-2" d="M119.69,41.75V64.49h-4.25V41.75Z"/><path class="cls-2" d="M146.29,31V53.88c0,1.19,0,3,.11,5.34s.15,4.14.21,5.27H142.5V60.65a9,9,0,0,1-3.3,3.14,9.54,9.54,0,0,1-4.56,1,9.73,9.73,0,0,1-5.25-1.41,9,9,0,0,1-3.49-4,14.52,14.52,0,0,1-1.21-6.13,15.58,15.58,0,0,1,.69-4.8,11.38,11.38,0,0,1,2.05-3.77,8.88,8.88,0,0,1,3.19-2.46,9.45,9.45,0,0,1,4-.83,8.64,8.64,0,0,1,7.54,4c0-.23,0-.55,0-1l-.06-1.22c0-.4,0-.71,0-.94V31ZM135.67,45a5.69,5.69,0,0,0-2.61.59,6.15,6.15,0,0,0-2.06,1.7,7.81,7.81,0,0,0-1.36,2.65,11,11,0,0,0-.48,3.27A9,9,0,0,0,131,59a5.59,5.59,0,0,0,4.58,2.26,5.74,5.74,0,0,0,3.38-1,7.12,7.12,0,0,0,2.36-2.93,9.65,9.65,0,0,0,.86-4.12,9.94,9.94,0,0,0-.85-4.15A7.21,7.21,0,0,0,139,46,5.51,5.51,0,0,0,135.67,45Z"/><path class="cls-2" d="M155.92,54.2a8.76,8.76,0,0,0,2.49,5.35,7,7,0,0,0,5.1,2,12.1,12.1,0,0,0,3.54-.53,15.87,15.87,0,0,0,3.57-1.61v4a21.33,21.33,0,0,1-3.75,1.3,15.61,15.61,0,0,1-3.54.39,12.74,12.74,0,0,1-4.8-.87,10.21,10.21,0,0,1-3.68-2.47,11.22,11.22,0,0,1-2.34-3.9,14.87,14.87,0,0,1-.81-5A13.59,13.59,0,0,1,153,46.73a9.67,9.67,0,0,1,3.78-4.12,10.74,10.74,0,0,1,5.6-1.47A8.94,8.94,0,0,1,168.27,43a9.79,9.79,0,0,1,3.11,4.76,21.79,21.79,0,0,1,.92,6.49Zm.05-3.29h12.1a11.4,11.4,0,0,0-.86-3.28,5.36,5.36,0,0,0-1.89-2.29,5.28,5.28,0,0,0-3.06-.86,5.58,5.58,0,0,0-4.17,1.71A8.38,8.38,0,0,0,156,50.91Z"/><path class="cls-3" d="M115.68,32.63c-.41-.13-.45-.67-.51-1.22-.17-1.77-.42-3.53-.53-5.31a2.31,2.31,0,0,0-1.25-2c-1.49-.88-2.93-1.85-4.4-2.77-.41-.26-.85-.52-.77-1.09s.63-.68,1.08-.79l18.31-4.28c.4-.09.82-.23,1.13.23s0,.92-.25,1.31Q122.72,24.34,116.91,32A1.12,1.12,0,0,1,115.68,32.63Z"/><text class="cls-4" transform="translate(43.1 88.75) rotate(43.7)">m</text><text class="cls-4" transform="matrix(0.81, 0.58, -0.58, 0.81, 50.23, 95.35)">e</text><text class="cls-4" transform="matrix(0.86, 0.51, -0.51, 0.86, 55.16, 98.82)">t</text><text class="cls-4" transform="translate(58.87 100.99) rotate(25.98)">t</text><text class="cls-4" transform="translate(62.75 102.9) rotate(20.67)">e</text><text class="cls-4" transform="matrix(0.97, 0.25, -0.25, 0.97, 68.45, 105.02)">z</text><text class="cls-4" transform="translate(73.74 106.35) rotate(10.35)">-</text><text class="cls-4" transform="matrix(0.99, 0.11, -0.11, 0.99, 76.7, 106.93)">v</text><text class="cls-4" transform="matrix(1, -0.01, 0.01, 1, 82.25, 107.56)">o</text><text class="cls-4" transform="matrix(0.99, -0.12, 0.12, 0.99, 88.92, 107.48)">u</text><text class="cls-4" transform="translate(95.39 106.64) rotate(-12.44)">s</text><text class="cls-4" transform="translate(99.65 105.67) rotate(-16.37)"> </text><text class="cls-4" transform="translate(102.86 104.78) rotate(-21.21)">à</text><text class="cls-4" transform="matrix(0.9, -0.44, 0.44, 0.9, 108.5, 102.51)"> </text><text class="cls-4" transform="translate(111.39 101.09) rotate(-29.05)">l</text><text class="cls-4" transform="translate(113.74 99.79) rotate(-32.04)">’</text><text class="cls-4" transform="translate(116.54 98.09) rotate(-36.77)">E</text><text class="cls-4" transform="matrix(0.74, -0.67, 0.67, 0.74, 121.39, 94.4)">s</text><text class="cls-4" transform="translate(124.64 91.44) rotate(-46.53)">t</text></g></g></svg>